<svg width="64" height="64" viewBox="0 0 64 64" fill="none" xmlns="http://www.w3.org/2000/svg">
<rect width="64" height="64" fill="#F11D48"/>
<path d="M43.3448 13C41.0882 12.9986 38.8583 13.4832 36.81 14.4204C34.7616 15.3575 32.9438 16.7246 31.4828 18.4268C29.4096 16.0222 26.6412 14.305 23.551 13.5067C20.4608 12.7084 17.1976 12.8675 14.2017 13.9627C11.2057 15.0578 8.62127 17.0361 6.79702 19.6308C4.97277 22.2254 3.99652 25.3115 4.00001 28.4726V51.0216C4.00001 51.2781 4.10294 51.5241 4.28617 51.7054C4.46939 51.8868 4.7179 51.9886 4.97702 51.9886H10.4828C10.7419 51.9886 10.9904 51.8868 11.1736 51.7054C11.3568 51.5241 11.4598 51.2781 11.4598 51.0216V28.4726C11.4522 27.4064 11.6571 26.3492 12.0627 25.3614C12.4683 24.3736 13.0666 23.4747 13.8235 22.716C14.5804 21.9574 15.481 21.3538 16.4738 20.9399C17.4665 20.526 18.532 20.31 19.6092 20.304C23.9195 20.304 27.7471 24.0242 27.7471 27.881V51.033C27.7471 51.2895 27.8501 51.5354 28.0333 51.7168C28.2165 51.8981 28.465 52 28.7241 52H34.2529C34.512 52 34.7605 51.8981 34.9437 51.7168C35.127 51.5354 35.2299 51.2895 35.2299 51.033V27.8241C35.2299 23.9332 39.0575 20.304 43.3678 20.304C45.5374 20.316 47.6136 21.1791 49.1413 22.7039C50.6689 24.2288 51.5234 26.291 51.5172 28.4385V51.0216C51.5172 51.1496 51.5429 51.2762 51.5927 51.3943C51.6425 51.5124 51.7155 51.6195 51.8075 51.7095C51.8994 51.7994 52.0085 51.8704 52.1283 51.9183C52.2482 51.9662 52.3765 51.9902 52.5057 51.9886H58.023C58.2821 51.9886 58.5306 51.8868 58.7138 51.7054C58.8971 51.5241 59 51.2781 59 51.0216V28.4726C59 26.4388 58.5949 24.425 57.8079 22.5463C57.0208 20.6675 55.8673 18.9609 54.4133 17.5238C52.9593 16.0867 51.2333 14.9475 49.3341 14.1713C47.4348 13.395 45.3996 12.997 43.3448 13Z" fill="white"/>
</svg>
